# xmcd
#
# Track frame offsets: 
#        150
#        16169
#        35246
#        55074
#        75785
#        93896
#        126288
#        147387
#        168419
#        188907
#        206407
#
# Disc length: 2986 seconds
#
# Revision: 0
# Processed by: cddbd v1.5.2PL0 Copyright (c) Steve Scherf et al.
# Submitted via: ExactAudioCopy v1.3
#
DISCID=8a0ba80b
DTITLE=Toronzo Cannon - The Preacher, The Politician Or The Pimp
DYEAR=2019
DGENRE=Blues Rock
TTITLE0=Get Together Or Get Apart
TTITLE1=The Preacher, The Poltician Or The Pimp
TTITLE2=The Chicago Way
TTITLE3=Insurance
TTITLE4=Stop Me When I'm Lying
TTITLE5=She Loved Me (Again)
TTITLE6=The Silence Of My Friends
TTITLE7=The First 24
TTITLE8=That's What I Love About 'Cha
TTITLE9=Ordinary Woman
TTITLE10=Let Me Lay My Love On You
EXTD=
EXTT0=
EXTT1=
EXTT2=
EXTT3=
EXTT4=
EXTT5=
EXTT6=
EXTT7=
EXTT8=
EXTT9=
EXTT10=
PLAYORDER=
